# xmcd
#
# Track frame offsets: 
#        150
#        3683
#        17709
#        38573
#        59747
#        64309
#        83221
#        98806
#        119834
#
# Disc length: 1800 seconds
#
# Revision: 0
# Processed by: cddbd v1.5.2PL0 Copyright (c) Steve Scherf et al.
# Submitted via: ExactAudioCopy v1.0b2
#
DISCID=7b070609
DTITLE=Moot Davis - Live At Studio One WETS-FM89.5
DYEAR=2002
DGENRE=Country
TTITLE0=Introduction By Dave Carter
TTITLE1=Whiskey Town
TTITLE2=Way Down Town
TTITLE3=The Highway Kind
TTITLE4=A Few Words From Johnny Cash
TTITLE5=Thanks For Breakin' My Heart
TTITLE6=Mind Your Own Business
TTITLE7=Don't Let Your Reckless Heart Go To Waste
TTITLE8=Midnight Train
EXTD=
EXTT0=
EXTT1=
EXTT2=
EXTT3=
EXTT4=
EXTT5=
EXTT6=
EXTT7=
EXTT8=
PLAYORDER=
